HIERARCHY
ROOT hip
{
  OFFSET 0.00112043 5.09927 -9.65472
  CHANNELS 6 Xposition Yposition Zposition Zrotation Xrotation Yrotation
  JOINT abdomen
  {
    OFFSET 0 -1.186 -1.5018
    CHANNELS 3 Zrotation Xrotation Yrotation
    JOINT abdomen2
    {
      OFFSET 0 9.964 0.2134
      CHANNELS 3 Zrotation Xrotation Yrotation
      JOINT chest
      {
        OFFSET 0 13.134 -3.2573
        CHANNELS 3 Zrotation Xrotation Yrotation
        JOINT neck
        {
          OFFSET 0 20.686 -1.6905
          CHANNELS 3 Zrotation Xrotation Yrotation
          JOINT head
          {
            OFFSET 0 7.238 -0.1237
            CHANNELS 3 Zrotation Xrotation Yrotation
            End Site
            {
              OFFSET 0 0 0
            }
          }
        }
        JOINT lCollar
        {
          OFFSET 1.7069 20.075 5.0056
          CHANNELS 3 Zrotation Xrotation Yrotation
          JOINT lShldr
          {
            OFFSET 13.6458 -0.047 -4.849
            CHANNELS 3 Zrotation Xrotation Yrotation
            JOINT lForeArm
            {
              OFFSET 28.3255 -0.9759 2.2888
              CHANNELS 3 Zrotation Xrotation Yrotation
              JOINT lHand
              {
                OFFSET 22.1583 -0.53 10.8316
                CHANNELS 3 Zrotation Xrotation Yrotation
                JOINT lThumb1
                {
                  OFFSET 0.786 0.112 2.5817
                  CHANNELS 3 Zrotation Xrotation Yrotation
                  JOINT lThumb2
                  {
                    OFFSET 0.3601 -0.878 4.2331
                    CHANNELS 3 Zrotation Xrotation Yrotation
                    JOINT lThumb2_End
                    {
                      OFFSET 1.8127 -1.216 2.2227
                      CHANNELS 3 Zrotation Xrotation Yrotation
                      End Site
                      {
                        OFFSET 0.0181 -0.0122 0.0222
                      }
                    }
                  }
                }
                JOINT lCarpal1
                {
                  OFFSET 0.9571 1.114 1.7695
                  CHANNELS 3 Zrotation Xrotation Yrotation
                  JOINT lIndex1
                  {
                    OFFSET 4.1246 0.487 4.1451
                    CHANNELS 3 Zrotation Xrotation Yrotation
                    JOINT lIndex2
                    {
                      OFFSET 3.4052 -1.454 2.7682
                      CHANNELS 3 Zrotation Xrotation Yrotation
                      JOINT lIndex2_End
                      {
                        OFFSET 1.4531 -1.795 1.2713
                        CHANNELS 3 Zrotation Xrotation Yrotation
                        End Site
                        {
                          OFFSET 0.0145 -0.0179 0.0127
                        }
                      }
                    }
                  }
                  JOINT lMid1
                  {
                    OFFSET 5.6954 0.21 2.1184
                    CHANNELS 3 Zrotation Xrotation Yrotation
                    JOINT lMid2
                    {
                      OFFSET 3.9766 -1.54 2.3863
                      CHANNELS 3 Zrotation Xrotation Yrotation
                      JOINT lMid2_End
                      {
                        OFFSET 1.4042 -1.926 1.125
                        CHANNELS 3 Zrotation Xrotation Yrotation
                        End Site
                        {
                          OFFSET 0.014 -0.0193 0.0113
                        }
                      }
                    }
                  }
                }
                JOINT lCarpal2
                {
                  OFFSET 2.0956 0.66 -0.3894
                  CHANNELS 3 Zrotation Xrotation Yrotation
                  JOINT lRing1
                  {
                    OFFSET 5.0395 -0.09 2.4971
                    CHANNELS 3 Zrotation Xrotation Yrotation
                    JOINT lRing2
                    {
                      OFFSET 3.7921 -1.552 1.4806
                      CHANNELS 3 Zrotation Xrotation Yrotation
                      JOINT lRing2_End
                      {
                        OFFSET 1.4655 -1.808 0.9609
                        CHANNELS 3 Zrotation Xrotation Yrotation
                        End Site
                        {
                          OFFSET 0.0147 -0.0181 0.0096
                        }
                      }
                    }
                  }
                  JOINT lPinky1
                  {
                    OFFSET 4.9141 -1.269 0.3591
                    CHANNELS 3 Zrotation Xrotation Yrotation
                    JOINT lPinky2
                    {
                      OFFSET 3.1477 -1.685 0.8462
                      CHANNELS 3 Zrotation Xrotation Yrotation
                      JOINT lPinky2_End
                      {
                        OFFSET 0.8055 -1.585 0.7955
                        CHANNELS 3 Zrotation Xrotation Yrotation
                        End Site
                        {
                          OFFSET 0.0081 -0.0158 0.008
                        }
                      }
                    }
                  }
                }
              }
            }
          }
        }
        JOINT rCollar
        {
          OFFSET -1.7069 20.075 5.0056
          CHANNELS 3 Zrotation Xrotation Yrotation
          JOINT rShldr
          {
            OFFSET -13.6458 -0.047 -4.849
            CHANNELS 3 Zrotation Xrotation Yrotation
            JOINT rForeArm
            {
              OFFSET -28.3255 -0.9759 2.2888
              CHANNELS 3 Zrotation Xrotation Yrotation
              JOINT rHand
              {
                OFFSET -22.1583 -0.53 10.8316
                CHANNELS 3 Zrotation Xrotation Yrotation
                JOINT rThumb1
                {
                  OFFSET -0.786 0.112 2.5817
                  CHANNELS 3 Zrotation Xrotation Yrotation
                  JOINT rThumb2
                  {
                    OFFSET -0.3601 -0.878 4.2331
                    CHANNELS 3 Zrotation Xrotation Yrotation
                    JOINT rThumb2_End
                    {
                      OFFSET -1.8127 -1.216 2.2227
                      CHANNELS 3 Zrotation Xrotation Yrotation
                      End Site
                      {
                        OFFSET -0.0181 -0.0122 0.0222
                      }
                    }
                  }
                }
                JOINT rCarpal1
                {
                  OFFSET -0.9571 1.114 1.7695
                  CHANNELS 3 Zrotation Xrotation Yrotation
                  JOINT rIndex1
                  {
                    OFFSET -4.1246 0.487 4.1451
                    CHANNELS 3 Zrotation Xrotation Yrotation
                    JOINT rIndex2
                    {
                      OFFSET -3.4052 -1.454 2.7682
                      CHANNELS 3 Zrotation Xrotation Yrotation
                      JOINT rIndex2_End
                      {
                        OFFSET -1.4531 -1.795 1.2713
                        CHANNELS 3 Zrotation Xrotation Yrotation
                        End Site
                        {
                          OFFSET -0.0145 -0.018 0.0127
                        }
                      }
                    }
                  }
                  JOINT rMid1
                  {
                    OFFSET -5.6954 0.21 2.1184
                    CHANNELS 3 Zrotation Xrotation Yrotation
                    JOINT rMid2
                    {
                      OFFSET -3.9766 -1.54 2.3863
                      CHANNELS 3 Zrotation Xrotation Yrotation
                      JOINT rMid2_End
                      {
                        OFFSET -1.4042 -1.926 1.125
                        CHANNELS 3 Zrotation Xrotation Yrotation
                        End Site
                        {
                          OFFSET -0.014 -0.0193 0.0113
                        }
                      }
                    }
                  }
                }
                JOINT rCarpal2
                {
                  OFFSET -2.0956 0.66 -0.3894
                  CHANNELS 3 Zrotation Xrotation Yrotation
                  JOINT rRing1
                  {
                    OFFSET -5.0395 -0.09 2.4971
                    CHANNELS 3 Zrotation Xrotation Yrotation
                    JOINT rRing2
                    {
                      OFFSET -3.7921 -1.552 1.4806
                      CHANNELS 3 Zrotation Xrotation Yrotation
                      JOINT rRing2_End
                      {
                        OFFSET -1.4655 -1.808 0.9609
                        CHANNELS 3 Zrotation Xrotation Yrotation
                        End Site
                        {
                          OFFSET -0.0147 -0.0181 0.0096
                        }
                      }
                    }
                  }
                  JOINT rPinky1
                  {
                    OFFSET -4.9141 -1.269 0.3592
                    CHANNELS 3 Zrotation Xrotation Yrotation
                    JOINT rPinky2
                    {
                      OFFSET -3.1477 -1.685 0.8462
                      CHANNELS 3 Zrotation Xrotation Yrotation
                      JOINT rPinky2_End
                      {
                        OFFSET -0.8055 -1.585 0.7955
                        CHANNELS 3 Zrotation Xrotation Yrotation
                        End Site
                        {
                          OFFSET -0.0081 -0.0158 0.008
                        }
                      }
                    }
                  }
                }
              }
            }
          }
        }
      }
    }
  }
  JOINT lThigh
  {
    OFFSET 8.367 -8.2066 0.5982
    CHANNELS 3 Zrotation Xrotation Yrotation
    JOINT lShin
    {
      OFFSET 2.1923 -43.463 -0.4932
      CHANNELS 3 Zrotation Xrotation Yrotation
      JOINT lFoot
      {
        OFFSET 0.7333 -45.8593 -2.6451
        CHANNELS 3 Zrotation Xrotation Yrotation
        End Site
        {
          OFFSET 2.6618 -4.2699 12.3931
        }
      }
    }
  }
  JOINT rThigh
  {
    OFFSET -8.367 -8.2066 0.5982
    CHANNELS 3 Zrotation Xrotation Yrotation
    JOINT rShin
    {
      OFFSET -2.1923 -43.463 -0.4931
      CHANNELS 3 Zrotation Xrotation Yrotation
      JOINT rFoot
      {
        OFFSET -0.7333 -45.8593 -2.6451
        CHANNELS 3 Zrotation Xrotation Yrotation
        End Site
        {
          OFFSET -2.6618 -4.2699 12.3931
        }
      }
    }
  }
}
MOTION
Frames:	4
Frame Time:	0.0333333
0 91.7903 2.51682 0 0 -0 0 0 -0 0 0 -0 0 0 -0 0 0 -0 0 0 -0 0 0 -0 1.66051 0.0835086 5.75766 -0.0175111 0.895433 15.7816 7.95139e-016 -1.98785e-016 -0 5.46658e-016 -3.97569e-016 -0 5.96354e-016 0 -0 3.97569e-016 1.98785e-016 9.54166e-015 1.49089e-016 -3.97569e-016 -0 6.4605e-016 0 3.18055e-015 5.96354e-016 0 3.18055e-015 8.94531e-016 -1.98785e-016 6.36111e-015 6.4605e-016 0 3.18055e-015 5.96354e-016 0 3.18055e-015 8.94531e-016 -1.98785e-016 6.36111e-015 1.49089e-016 -3.97569e-016 -0 6.4605e-016 0 3.18055e-015 5.96354e-016 0 3.18055e-015 8.94531e-016 -1.98785e-016 6.36111e-015 6.4605e-016 0 3.18055e-015 5.96354e-016 0 3.18055e-015 8.94531e-016 -1.98785e-016 6.36111e-015 0 0 -0 -1.4496 0.0636048 -5.0245 -1.74811 1.20616 -16.8394 -1.19271e-015 1.98785e-016 -3.18055e-015 -3.97569e-016 1.98785e-016 -3.18055e-015 -2.98177e-016 1.98785e-016 -3.18055e-015 -2.98177e-016 3.97569e-016 -0 4.96962e-016 0 -6.36111e-015 -9.93923e-017 3.97569e-016 -0 -8.94531e-016 5.96354e-016 -0 -3.97569e-016 3.97569e-016 -0 -9.93923e-017 3.97569e-016 -0 -8.94531e-016 5.96354e-016 -0 -3.97569e-016 3.97569e-016 -0 4.96962e-016 0 -6.36111e-015 -9.93923e-017 3.97569e-016 -0 -8.94531e-016 5.96354e-016 -0 -3.97569e-016 3.97569e-016 -0 -9.93923e-017 3.97569e-016 -0 -8.94531e-016 5.96354e-016 -0 -3.97569e-016 3.97569e-016 -0 -4.66111 -0.998717 0.12318 0.00986924 1.54847 0.176523 4.65186 -0.572283 -0.254274 4.66111 -0.998765 -0.123176 -0.00986867 1.54869 -0.176537 -4.65186 -0.572453 0.25427 
-27.9677 15.421 6.14738 -6.28251e-015 6.97819e-015 173.994 0.96582 -0.0155417 -5.8005 1.92512 -0.128607 -11.5999 1.92513 -0.128607 -11.5999 0.000107793 -13.0007 4.20847e-005 13.328 -12.6628 -27.0305 -47.4805 10.5955 -19.8968 -27.2993 8.94575 -12.8015 -15.2089 4.44402 -45.5837 -6.5122 2.57101 0.0273176 3.10353e-033 -3.97569e-016 4.47266e-016 1.16924e-006 -4.45688e-007 -1.14284e-006 -4.96564e-031 -3.18055e-015 -8.94531e-015 -1.59028e-015 -3.97569e-016 4.96962e-016 1.59028e-015 2.78299e-015 3.52843e-015 1.16924e-006 -4.45688e-007 -1.14284e-006 4.77083e-015 0 -2.28602e-015 1.59028e-015 2.78299e-015 3.52843e-015 1.16924e-006 -4.45688e-007 -1.14284e-006 4.77083e-015 0 -2.28602e-015 -1.59028e-015 -3.97569e-016 4.96962e-016 1.59028e-015 2.78299e-015 3.52843e-015 1.16924e-006 -4.45688e-007 -1.14284e-006 4.77083e-015 0 -2.28602e-015 1.59028e-015 2.78299e-015 3.52843e-015 1.16924e-006 -4.45688e-007 -1.14284e-006 4.77083e-015 0 -2.28602e-015 14.1581 0.305499 16.5812 3.50783 -0.209679 16.4682 14.4107 6.77134 29.6753 17.0806 -0.331556 39.0518 -6.36111e-015 -4.17448e-015 6.36111e-015 -3.97569e-015 -8.74653e-015 3.18055e-015 -7.95139e-015 -1.09332e-014 6.36111e-015 -7.95139e-016 -2.5842e-015 3.18055e-015 -3.97569e-015 -6.95746e-015 6.36111e-015 -6.36111e-015 7.95139e-016 3.18055e-015 -7.15625e-015 -4.37326e-015 6.36111e-015 -3.97569e-015 -6.95746e-015 6.36111e-015 -6.36111e-015 7.95139e-016 3.18055e-015 -7.15625e-015 -4.37326e-015 6.36111e-015 -7.95139e-016 -2.5842e-015 3.18055e-015 -3.97569e-015 -6.95746e-015 6.36111e-015 -6.36111e-015 7.95139e-016 3.18055e-015 -7.15625e-015 -4.37326e-015 6.36111e-015 -3.97569e-015 -6.95746e-015 6.36111e-015 -6.36111e-015 7.95139e-016 3.18055e-015 -7.15625e-015 -4.37326e-015 6.36111e-015 103.348 -69.3961 135.49 -41.8011 41.3211 32.7022 60.8974 32.3229 -49.6367 -176.741 -73.7508 -179.33 3.53459 49.3906 -4.37386 -20.9435 24.1229 7.95769 
-27.9677 15.421 6.14737 -6.28251e-015 6.97819e-015 173.994 0.96582 -0.0155367 -5.8005 1.92512 -0.128607 -11.5999 1.92513 -0.128607 -11.5999 0.00684119 -12.9317 0.110056 13.328 -12.6628 -27.0305 -47.4805 10.5955 -19.8968 -27.2993 8.94575 -12.8015 -15.2089 4.44402 -45.5837 -6.5122 2.57103 0.0273143 3.18055e-015 -3.57812e-015 4.96962e-016 1.59028e-015 -3.18055e-015 -3.27995e-015 -1.59028e-015 -3.57812e-015 -3.67752e-015 1.59028e-015 -1.19271e-015 5.46658e-016 -0 0 3.97569e-016 1.59028e-015 -2.38542e-015 2.98177e-016 1.59028e-015 -2.38542e-015 6.21202e-015 -0 0 3.97569e-016 1.59028e-015 -2.38542e-015 2.98177e-016 1.59028e-015 -2.38542e-015 6.21202e-015 1.59028e-015 -1.19271e-015 5.46658e-016 -0 0 3.97569e-016 1.59028e-015 -2.38542e-015 2.98177e-016 1.59028e-015 -2.38542e-015 6.21202e-015 -0 0 3.97569e-016 1.59028e-015 -2.38542e-015 2.98177e-016 1.59028e-015 -2.38542e-015 6.21202e-015 14.1581 0.305499 16.5812 3.50783 -0.209677 16.4682 14.4107 6.77133 29.6753 17.3329 -0.558184 38.8607 -3.97569e-015 -1.19271e-015 6.36111e-015 6.40016e-031 -5.76476e-015 6.36111e-015 -3.18055e-015 -3.37934e-015 6.36111e-015 -6.36111e-015 -1.39149e-015 -0 2.38542e-015 -1.98785e-015 6.36111e-015 -1.59028e-015 -8.94531e-015 9.54166e-015 2.38542e-015 -3.37934e-015 6.36111e-015 2.38542e-015 -1.98785e-015 6.36111e-015 -1.59028e-015 -8.94531e-015 9.54166e-015 2.38542e-015 -3.37934e-015 6.36111e-015 -6.36111e-015 -1.39149e-015 -0 2.38542e-015 -1.98785e-015 6.36111e-015 -1.59028e-015 -8.94531e-015 9.54166e-015 2.38542e-015 -3.37934e-015 6.36111e-015 2.38542e-015 -1.98785e-015 6.36111e-015 -1.59028e-015 -8.94531e-015 9.54166e-015 2.38542e-015 -3.37934e-015 6.36111e-015 103.348 -69.3961 135.49 -41.8011 41.3211 32.7021 60.8974 32.3229 -49.6367 -176.741 -73.7508 -179.33 3.53458 49.3906 -4.37385 -20.9435 24.1229 7.95768 
-27.9677 15.421 6.14737 -6.28251e-015 6.97819e-015 173.994 0.96582 -0.0155367 -5.8005 1.92512 -0.128607 -11.5999 1.92513 -0.128607 -11.5999 0.0134158 -12.8627 0.220087 13.328 -12.6628 -27.0305 -47.4805 10.5955 -19.8968 -27.2993 8.94575 -12.8015 -15.2089 4.44402 -45.5837 -6.5122 2.57103 0.0273143 3.18055e-015 -3.57812e-015 4.96962e-016 1.59028e-015 -3.18055e-015 -3.27995e-015 -1.59028e-015 -3.57812e-015 -3.67752e-015 1.59028e-015 -1.19271e-015 5.46658e-016 -0 0 3.97569e-016 1.59028e-015 -2.38542e-015 2.98177e-016 1.59028e-015 -2.38542e-015 6.21202e-015 -0 0 3.97569e-016 1.59028e-015 -2.38542e-015 2.98177e-016 1.59028e-015 -2.38542e-015 6.21202e-015 1.59028e-015 -1.19271e-015 5.46658e-016 -0 0 3.97569e-016 1.59028e-015 -2.38542e-015 2.98177e-016 1.59028e-015 -2.38542e-015 6.21202e-015 -0 0 3.97569e-016 1.59028e-015 -2.38542e-015 2.98177e-016 1.59028e-015 -2.38542e-015 6.21202e-015 14.1581 0.305499 16.5812 3.50783 -0.209677 16.4682 14.4107 6.77133 29.6753 17.5846 -0.785923 38.6703 2.38542e-015 -1.59028e-015 -3.18055e-015 -2.38542e-015 -7.7526e-015 -3.18055e-015 1.59028e-015 -1.78906e-015 -0 3.97569e-015 5.76476e-015 -0 7.95139e-016 -3.37934e-015 -6.36111e-015 7.95139e-016 -5.96354e-015 -0 3.18055e-015 -5.96354e-015 -3.18055e-015 7.95139e-016 -3.37934e-015 -6.36111e-015 7.95139e-016 -5.96354e-015 -0 3.18055e-015 -5.96354e-015 -3.18055e-015 3.97569e-015 5.76476e-015 -0 7.95139e-016 -3.37934e-015 -6.36111e-015 7.95139e-016 -5.96354e-015 -0 3.18055e-015 -5.96354e-015 -3.18055e-015 7.95139e-016 -3.37934e-015 -6.36111e-015 7.95139e-016 -5.96354e-015 -0 3.18055e-015 -5.96354e-015 -3.18055e-015 103.348 -69.3961 135.49 -41.8011 41.3211 32.7021 60.8974 32.3229 -49.6367 -176.741 -73.7508 -179.33 3.53458 49.3906 -4.37385 -20.9435 24.1229 7.95768 
